<?xml version="1.0" encoding="UTF-8"?>
<svg width="271px" height="271px" viewBox="0 0 271 271" version="1.1" xmlns="http://www.w3.org/2000/svg" xmlns:xlink="http://www.w3.org/1999/xlink">
    <!-- Generator: Sketch 42 (36781) - http://www.bohemiancoding.com/sketch -->
    <title>Artboard 9</title>
    <desc>Created with Sketch.</desc>
    <defs>
        <path d="M38.042122,112.612252 L0,112.612252 L0,132.485002 L38.2313863,132.485002 C90.8468586,132.485002 111.098137,101.445659 111.098137,66.242501 C111.098137,31.0393433 90.8468586,0 38.2313863,0 L0,0 L0,35.7709506 L53.751058,111.287402 C48.8301865,112.233723 43.5307864,112.612252 38.042122,112.612252 Z M21.7653932,29.7144933 L21.7653932,19.8727503 L38.042122,19.8727503 C65.8639725,19.8727503 88.9542157,31.2286076 88.9542157,66.242501 C88.9542157,84.0333442 82.8977585,95.7677301 73.434544,102.959773 L21.7653932,29.7144933 Z" id="path-1"></path>
        <filter x="-50%" y="-50%" width="200%" height="200%" filterUnits="objectBoundingBox" id="filter-2">
            <feOffset dx="0" dy="2" in="SourceAlpha" result="shadowOffsetOuter1"></feOffset>
            <feGaussianBlur stdDeviation="2" in="shadowOffsetOuter1" result="shadowBlurOuter1"></feGaussianBlur>
            <feColorMatrix values="0 0 0 0 0   0 0 0 0 0   0 0 0 0 0  0 0 0 0.5 0" type="matrix" in="shadowBlurOuter1"></feColorMatrix>
        </filter>
    </defs>
    <g id="Logo" stroke="none" stroke-width="1" fill="none" fill-rule="evenodd">
        <g id="Artboard-9">
            <circle id="Oval-4" fill="#000000" cx="134.742243" cy="134.742243" r="135.742243"></circle>
            <g id="Group" transform="translate(50.000000, 65.000000)">
                <path d="M163.145817,20.2512789 C156.332302,10.2202716 143.462331,1.89264289 125.671488,1.89264289 C102.959773,1.89264289 85.7367228,15.8982003 85.7367228,38.042122 C85.7367228,57.7256081 100.688602,67.5673511 121.696938,76.2735083 C135.702495,82.1407013 146.869088,87.6293657 146.869088,98.7959587 C146.869088,111.287402 137.405874,117.343859 126.428545,117.343859 C111.66593,117.343859 102.39198,107.312852 98.985223,96.1462587 L80.626587,106.745059 C84.6011371,120.182823 98.985223,138.162931 126.428545,138.162931 C151.78996,138.162931 169.202274,122.832523 169.202274,98.2281658 C169.202274,77.2198298 154.250395,66.9995582 135.513231,58.6719295 C120.182823,51.8584151 108.637702,48.8301865 108.637702,36.9065363 C108.637702,28.3896433 116.208273,22.7117146 125.671488,22.7117146 C135.323966,22.7117146 141.948217,26.3077361 147.815409,34.067572 L163.145817,20.2512789 Z" id="S" fill="#FFFFFF"></path>
                <g id="d">
                    <use fill="black" fill-opacity="1" filter="url(#filter-2)" xlink:href="#path-1"></use>
                    <use fill="#FFFFFF" fill-rule="evenodd" xlink:href="#path-1"></use>
                </g>
            </g>
        </g>
    </g>
</svg>