<?xml version="1.0" encoding="UTF-8"?>
<svg width="207px" height="61px" viewBox="0 0 207 61" version="1.1" xmlns="http://www.w3.org/2000/svg" xmlns:xlink="http://www.w3.org/1999/xlink">
    <!-- Generator: Sketch 42 (36781) - http://www.bohemiancoding.com/sketch -->
    <title>Logo</title>
    <desc>Created with Sketch.</desc>
    <defs>
        <linearGradient x1="14.6235738%" y1="13.6488549%" x2="86.4724084%" y2="84.7619364%" id="linearGradient-1">
            <stop stop-color="#FFCDB8" offset="0%"></stop>
            <stop stop-color="#B54444" offset="100%"></stop>
        </linearGradient>
    </defs>
    <g id="Carlos-Anderson" stroke="none" stroke-width="1" fill="none" fill-rule="evenodd">
        <g id="Logo">
            <g id="1491382281_camera">
                <g id="Layer_1">
                    <g id="Group-2">
                        <circle id="Oval" fill="url(#linearGradient-1)" fill-rule="nonzero" cx="30.5" cy="30.5" r="30.5"></circle>
                        <g id="Group" transform="translate(14.296875, 16.679688)" fill-rule="nonzero" fill="#FFFFFF">
                            <path d="M30.5476562,5.01582031 L27.8908203,5.01582031 C27.6763672,5.01582031 27.4857422,4.8609375 27.45,4.64648438 C27.45,4.63457031 27.45,4.62265625 27.4380859,4.59882812 L26.6636719,1.53691406 C26.496875,0.702929688 25.7582031,0.0953125 24.9003906,0.0953125 L7.49394531,0.0953125 C6.63613281,0.0953125 5.89746094,0.702929688 5.73066406,1.53691406 L4.95625,4.59882812 C4.95625,4.61074219 4.94433594,4.62265625 4.94433594,4.64648438 C4.90859375,4.8609375 4.71796875,5.01582031 4.50351563,5.01582031 L1.84667969,5.01582031 C0.8578125,5.01582031 0.04765625,5.82597656 0.04765625,6.81484375 L0.04765625,25.7582031 C0.04765625,26.7470703 0.8578125,27.5572266 1.84667969,27.5572266 L30.5476562,27.5572266 C31.5365234,27.5572266 32.3466797,26.7470703 32.3466797,25.7582031 L32.3466797,6.81484375 C32.3466797,5.8140625 31.5365234,5.01582031 30.5476562,5.01582031 Z M31.0003906,25.7462891 C31.0003906,25.9964844 30.7978516,26.1990234 30.5476563,26.1990234 L1.85859375,26.1990234 C1.60839844,26.1990234 1.40585938,25.9964844 1.40585938,25.7462891 L1.40585938,6.80292969 C1.40585938,6.55273438 1.60839844,6.35019531 1.85859375,6.35019531 L4.51542969,6.35019531 C5.37324219,6.35019531 6.11191406,5.74257813 6.27871094,4.90859375 L7.053125,1.84667969 C7.053125,1.83476563 7.06503906,1.82285156 7.06503906,1.79902344 C7.10078125,1.58457031 7.29140625,1.4296875 7.50585938,1.4296875 L24.9242188,1.4296875 C25.1386719,1.4296875 25.3292969,1.58457031 25.3650391,1.79902344 C25.3650391,1.8109375 25.3650391,1.82285156 25.3769531,1.84667969 L26.1513672,4.90859375 C26.3181641,5.74257813 27.0568359,6.35019531 27.9146484,6.35019531 L30.5714844,6.35019531 C30.8216797,6.35019531 31.0242188,6.55273437 31.0242188,6.80292969 L31.0242188,25.7462891 L31.0003906,25.7462891 Z" id="Shape"></path>
                            <path d="M16.203125,8.79257813 C12.3072266,8.79257813 9.13808594,11.9617187 9.13808594,15.8576172 C9.13808594,19.7535156 12.3072266,22.9226563 16.203125,22.9226563 C20.0990234,22.9226563 23.2681641,19.7535156 23.2681641,15.8576172 C23.2681641,11.9617188 20.0990234,8.79257813 16.203125,8.79257813 Z M16.203125,21.5644531 C13.0458984,21.5644531 10.484375,19.0029297 10.484375,15.8457031 C10.484375,12.6884766 13.0458984,10.1269531 16.203125,10.1269531 C19.3603516,10.1269531 21.921875,12.6884766 21.921875,15.8457031 C21.921875,19.0029297 19.3603516,21.5644531 16.203125,21.5644531 Z" id="Shape"></path>
                        </g>
                        <text id="CARLOS" font-family="HelveticaNeue-Thin, Helvetica Neue" font-size="15" font-weight="300" letter-spacing="1.4666667" fill="#000000">
                            <tspan x="72.5199999" y="15">CARLOS</tspan>
                        </text>
                        <text id="ANDERSON" font-family="HelveticaNeue-Thin, Helvetica Neue" font-size="15" font-weight="300" letter-spacing="1.4666667" fill="#000000">
                            <tspan x="73.3058332" y="35">ANDERSON</tspan>
                        </text>
                        <text id="PHOTOGRAPHY" font-family="HelveticaNeue-Bold, Helvetica Neue" font-size="15" font-weight="bold" letter-spacing="1.4666667" fill="#000000">
                            <tspan x="71.8133332" y="57">PHOTOGRAPHY</tspan>
                        </text>
                    </g>
                </g>
            </g>
        </g>
    </g>
</svg>