<?xml version="1.0" encoding="UTF-8"?>
<svg width="316px" height="315px" viewBox="0 0 316 315" version="1.1" xmlns="http://www.w3.org/2000/svg" xmlns:xlink="http://www.w3.org/1999/xlink">
    <!-- Generator: Sketch 42 (36781) - http://www.bohemiancoding.com/sketch -->
    <title>Logo large black weight@1x</title>
    <desc>Created with Sketch.</desc>
    <defs>
        <filter x="-50%" y="-50%" width="200%" height="200%" filterUnits="objectBoundingBox" id="filter-1">
            <feOffset dx="0" dy="12" in="SourceAlpha" result="shadowOffsetOuter1"></feOffset>
            <feGaussianBlur stdDeviation="14.5" in="shadowOffsetOuter1" result="shadowBlurOuter1"></feGaussianBlur>
            <feColorMatrix values="0 0 0 0 0   0 0 0 0 0   0 0 0 0 0  0 0 0 0.5 0" type="matrix" in="shadowBlurOuter1" result="shadowMatrixOuter1"></feColorMatrix>
            <feMerge>
                <feMergeNode in="shadowMatrixOuter1"></feMergeNode>
                <feMergeNode in="SourceGraphic"></feMergeNode>
            </feMerge>
        </filter>
        <linearGradient x1="0%" y1="50%" x2="96.4015356%" y2="50%" id="linearGradient-2">
            <stop stop-color="#808080" offset="0%"></stop>
            <stop stop-color="#5E5E5E" offset="51.4696535%"></stop>
            <stop stop-color="#3E3E3E" offset="100%"></stop>
        </linearGradient>
    </defs>
    <g id="Mind-on-Muscle" stroke="none" stroke-width="1" fill="none" fill-rule="evenodd">
        <g id="Logo-large-black-weight">
            <g id="weight" filter="url(#filter-1)">
                <path d="M312.383141,89.1345807 L226.062564,3.02418814 C224.122028,1.08836358 221.48906,0.000614547478 218.744588,0.000614547478 L96.6701011,0.000614547478 C93.9243969,0.000614547478 91.2920447,1.08897813 89.352125,3.02541723 L3.03216419,89.1351953 C1.09039631,91.0710198 0,93.6975957 0,96.4360193 L0,218.214133 C0,220.953171 1.09039631,223.578518 3.03216419,225.514342 L89.352125,311.62412 C91.2932768,313.56056 93.925629,314.648923 96.6701011,314.648923 L218.744588,314.648923 C221.490292,314.648923 224.122644,313.56056 226.062564,311.62412 L312.383141,225.514342 C314.324293,223.577903 315.415305,220.951942 315.415305,218.214133 L315.415305,96.4360193 C315.414073,93.6975957 314.323677,91.0710198 312.383141,89.1345807 L312.383141,89.1345807 Z M95.9511788,166.616727 C95.9511788,194.3236 73.3547174,216.865201 45.5804138,216.865201 C39.8641497,216.865201 35.2302735,212.242575 35.2302735,206.540189 L35.2302735,108.108734 C35.2302735,102.406348 39.8641497,97.7837219 45.5804138,97.7837219 C73.3547174,97.7837219 95.9511788,120.325323 95.9511788,148.032196 L95.9511788,166.616727 L95.9511788,166.616727 Z M157.707037,186.914001 C141.325834,186.914001 128.045793,173.666201 128.045793,157.324769 C128.045793,140.983337 141.325834,127.735537 157.707037,127.735537 C174.088239,127.735537 187.36828,140.983337 187.36828,157.324769 C187.36828,173.666201 174.088239,186.914001 157.707037,186.914001 L157.707037,186.914001 Z M280.1838,206.540189 C280.1838,212.242575 275.549923,216.865201 269.833659,216.865201 C242.059356,216.865201 219.462894,194.3236 219.462894,166.616727 L219.462894,148.032196 C219.462894,120.325323 242.059356,97.7837219 269.833659,97.7837219 C275.549923,97.7837219 280.1838,102.406348 280.1838,108.108734 L280.1838,206.540189 L280.1838,206.540189 Z" id="Shape" fill="url(#linearGradient-2)"></path>
                <path d="M190.553612,127.470001 C182.169793,119.106537 171.023021,114.50081 159.166919,114.50081 C147.310245,114.50081 136.163473,119.106537 127.780227,127.470001 C119.396408,135.833465 114.779473,146.953175 114.779473,158.780493 C114.779473,170.608381 119.396408,181.728091 127.780227,190.091555 C136.164045,198.455019 147.310817,203.060745 159.166919,203.060745 C171.023593,203.060745 182.170365,198.455019 190.553612,190.091555 C198.93743,181.728091 203.554365,170.608381 203.554365,158.780493 C203.554937,146.953175 198.93743,135.833465 190.553612,127.470001 L190.553612,127.470001 Z M159.167491,182.649692 C145.952794,182.649692 135.239629,171.962536 135.239629,158.779922 C135.239629,145.597308 145.952794,134.910152 159.167491,134.910152 C172.382188,134.910152 183.095354,145.596737 183.095354,158.779922 C183.095354,171.963107 172.382188,182.649692 159.167491,182.649692 L159.167491,182.649692 Z" id="Shape" fill="#3E3E3E"></path>
            </g>
            <g id="weight" fill="#000000">
                <path d="M312.383141,89.1345807 L226.062564,3.02418814 C224.122028,1.08836358 221.48906,0.000614547478 218.744588,0.000614547478 L96.6701011,0.000614547478 C93.9243969,0.000614547478 91.2920447,1.08897813 89.352125,3.02541723 L3.03216419,89.1351953 C1.09039631,91.0710198 0,93.6975957 0,96.4360193 L0,218.214133 C0,220.953171 1.09039631,223.578518 3.03216419,225.514342 L89.352125,311.62412 C91.2932768,313.56056 93.925629,314.648923 96.6701011,314.648923 L218.744588,314.648923 C221.490292,314.648923 224.122644,313.56056 226.062564,311.62412 L312.383141,225.514342 C314.324293,223.577903 315.415305,220.951942 315.415305,218.214133 L315.415305,96.4360193 C315.414073,93.6975957 314.323677,91.0710198 312.383141,89.1345807 L312.383141,89.1345807 Z M95.9511788,166.616727 C95.9511788,194.3236 73.3547174,216.865201 45.5804138,216.865201 C39.8641497,216.865201 35.2302735,212.242575 35.2302735,206.540189 L35.2302735,108.108734 C35.2302735,102.406348 39.8641497,97.7837219 45.5804138,97.7837219 C73.3547174,97.7837219 95.9511788,120.325323 95.9511788,148.032196 L95.9511788,166.616727 L95.9511788,166.616727 Z M157.707037,186.914001 C141.325834,186.914001 128.045793,173.666201 128.045793,157.324769 C128.045793,140.983337 141.325834,127.735537 157.707037,127.735537 C174.088239,127.735537 187.36828,140.983337 187.36828,157.324769 C187.36828,173.666201 174.088239,186.914001 157.707037,186.914001 L157.707037,186.914001 Z M280.1838,206.540189 C280.1838,212.242575 275.549923,216.865201 269.833659,216.865201 C242.059356,216.865201 219.462894,194.3236 219.462894,166.616727 L219.462894,148.032196 C219.462894,120.325323 242.059356,97.7837219 269.833659,97.7837219 C275.549923,97.7837219 280.1838,102.406348 280.1838,108.108734 L280.1838,206.540189 L280.1838,206.540189 Z" id="Shape"></path>
                <path d="M190.553612,127.470001 C182.169793,119.106537 171.023021,114.50081 159.166919,114.50081 C147.310245,114.50081 136.163473,119.106537 127.780227,127.470001 C119.396408,135.833465 114.779473,146.953175 114.779473,158.780493 C114.779473,170.608381 119.396408,181.728091 127.780227,190.091555 C136.164045,198.455019 147.310817,203.060745 159.166919,203.060745 C171.023593,203.060745 182.170365,198.455019 190.553612,190.091555 C198.93743,181.728091 203.554365,170.608381 203.554365,158.780493 C203.554937,146.953175 198.93743,135.833465 190.553612,127.470001 L190.553612,127.470001 Z M159.167491,182.649692 C145.952794,182.649692 135.239629,171.962536 135.239629,158.779922 C135.239629,145.597308 145.952794,134.910152 159.167491,134.910152 C172.382188,134.910152 183.095354,145.596737 183.095354,158.779922 C183.095354,171.963107 172.382188,182.649692 159.167491,182.649692 L159.167491,182.649692 Z" id="Shape"></path>
            </g>
        </g>
    </g>
</svg>