<?xml version="1.0" encoding="UTF-8"?>
<svg width="627px" height="446px" viewBox="0 0 627 446" version="1.1" xmlns="http://www.w3.org/2000/svg" xmlns:xlink="http://www.w3.org/1999/xlink">
    <!-- Generator: Sketch 42 (36781) - http://www.bohemiancoding.com/sketch -->
    <title>Logo large black@1x</title>
    <desc>Created with Sketch.</desc>
    <defs>
        <filter x="-50%" y="-50%" width="200%" height="200%" filterUnits="objectBoundingBox" id="filter-1">
            <feOffset dx="0" dy="12" in="SourceAlpha" result="shadowOffsetOuter1"></feOffset>
            <feGaussianBlur stdDeviation="14.5" in="shadowOffsetOuter1" result="shadowBlurOuter1"></feGaussianBlur>
            <feColorMatrix values="0 0 0 0 0   0 0 0 0 0   0 0 0 0 0  0 0 0 0.5 0" type="matrix" in="shadowBlurOuter1" result="shadowMatrixOuter1"></feColorMatrix>
            <feMerge>
                <feMergeNode in="shadowMatrixOuter1"></feMergeNode>
                <feMergeNode in="SourceGraphic"></feMergeNode>
            </feMerge>
        </filter>
        <linearGradient x1="0%" y1="50%" x2="96.4015356%" y2="50%" id="linearGradient-2">
            <stop stop-color="#808080" offset="0%"></stop>
            <stop stop-color="#5E5E5E" offset="51.4696535%"></stop>
            <stop stop-color="#3E3E3E" offset="100%"></stop>
        </linearGradient>
    </defs>
    <g id="Mind-on-Muscle" stroke="none" stroke-width="1" fill="none" fill-rule="evenodd">
        <g id="Logo-large-black">
            <g id="weight" filter="url(#filter-1)" transform="translate(153.000000, 0.000000)">
                <path d="M312.383141,89.1345807 L226.062564,3.02418814 C224.122028,1.08836358 221.48906,0.000614547478 218.744588,0.000614547478 L96.6701011,0.000614547478 C93.9243969,0.000614547478 91.2920447,1.08897813 89.352125,3.02541723 L3.03216419,89.1351953 C1.09039631,91.0710198 0,93.6975957 0,96.4360193 L0,218.214133 C0,220.953171 1.09039631,223.578518 3.03216419,225.514342 L89.352125,311.62412 C91.2932768,313.56056 93.925629,314.648923 96.6701011,314.648923 L218.744588,314.648923 C221.490292,314.648923 224.122644,313.56056 226.062564,311.62412 L312.383141,225.514342 C314.324293,223.577903 315.415305,220.951942 315.415305,218.214133 L315.415305,96.4360193 C315.414073,93.6975957 314.323677,91.0710198 312.383141,89.1345807 L312.383141,89.1345807 Z M95.9511788,166.616727 C95.9511788,194.3236 73.3547174,216.865201 45.5804138,216.865201 C39.8641497,216.865201 35.2302735,212.242575 35.2302735,206.540189 L35.2302735,108.108734 C35.2302735,102.406348 39.8641497,97.7837219 45.5804138,97.7837219 C73.3547174,97.7837219 95.9511788,120.325323 95.9511788,148.032196 L95.9511788,166.616727 L95.9511788,166.616727 Z M157.707037,186.914001 C141.325834,186.914001 128.045793,173.666201 128.045793,157.324769 C128.045793,140.983337 141.325834,127.735537 157.707037,127.735537 C174.088239,127.735537 187.36828,140.983337 187.36828,157.324769 C187.36828,173.666201 174.088239,186.914001 157.707037,186.914001 L157.707037,186.914001 Z M280.1838,206.540189 C280.1838,212.242575 275.549923,216.865201 269.833659,216.865201 C242.059356,216.865201 219.462894,194.3236 219.462894,166.616727 L219.462894,148.032196 C219.462894,120.325323 242.059356,97.7837219 269.833659,97.7837219 C275.549923,97.7837219 280.1838,102.406348 280.1838,108.108734 L280.1838,206.540189 L280.1838,206.540189 Z" id="Shape" fill="url(#linearGradient-2)"></path>
                <path d="M190.553612,127.470001 C182.169793,119.106537 171.023021,114.50081 159.166919,114.50081 C147.310245,114.50081 136.163473,119.106537 127.780227,127.470001 C119.396408,135.833465 114.779473,146.953175 114.779473,158.780493 C114.779473,170.608381 119.396408,181.728091 127.780227,190.091555 C136.164045,198.455019 147.310817,203.060745 159.166919,203.060745 C171.023593,203.060745 182.170365,198.455019 190.553612,190.091555 C198.93743,181.728091 203.554365,170.608381 203.554365,158.780493 C203.554937,146.953175 198.93743,135.833465 190.553612,127.470001 L190.553612,127.470001 Z M159.167491,182.649692 C145.952794,182.649692 135.239629,171.962536 135.239629,158.779922 C135.239629,145.597308 145.952794,134.910152 159.167491,134.910152 C172.382188,134.910152 183.095354,145.596737 183.095354,158.779922 C183.095354,171.963107 172.382188,182.649692 159.167491,182.649692 L159.167491,182.649692 Z" id="Shape" fill="#3E3E3E"></path>
            </g>
            <g id="weight" transform="translate(153.000000, 0.000000)" fill="#000000">
                <path d="M312.383141,89.1345807 L226.062564,3.02418814 C224.122028,1.08836358 221.48906,0.000614547478 218.744588,0.000614547478 L96.6701011,0.000614547478 C93.9243969,0.000614547478 91.2920447,1.08897813 89.352125,3.02541723 L3.03216419,89.1351953 C1.09039631,91.0710198 0,93.6975957 0,96.4360193 L0,218.214133 C0,220.953171 1.09039631,223.578518 3.03216419,225.514342 L89.352125,311.62412 C91.2932768,313.56056 93.925629,314.648923 96.6701011,314.648923 L218.744588,314.648923 C221.490292,314.648923 224.122644,313.56056 226.062564,311.62412 L312.383141,225.514342 C314.324293,223.577903 315.415305,220.951942 315.415305,218.214133 L315.415305,96.4360193 C315.414073,93.6975957 314.323677,91.0710198 312.383141,89.1345807 L312.383141,89.1345807 Z M95.9511788,166.616727 C95.9511788,194.3236 73.3547174,216.865201 45.5804138,216.865201 C39.8641497,216.865201 35.2302735,212.242575 35.2302735,206.540189 L35.2302735,108.108734 C35.2302735,102.406348 39.8641497,97.7837219 45.5804138,97.7837219 C73.3547174,97.7837219 95.9511788,120.325323 95.9511788,148.032196 L95.9511788,166.616727 L95.9511788,166.616727 Z M157.707037,186.914001 C141.325834,186.914001 128.045793,173.666201 128.045793,157.324769 C128.045793,140.983337 141.325834,127.735537 157.707037,127.735537 C174.088239,127.735537 187.36828,140.983337 187.36828,157.324769 C187.36828,173.666201 174.088239,186.914001 157.707037,186.914001 L157.707037,186.914001 Z M280.1838,206.540189 C280.1838,212.242575 275.549923,216.865201 269.833659,216.865201 C242.059356,216.865201 219.462894,194.3236 219.462894,166.616727 L219.462894,148.032196 C219.462894,120.325323 242.059356,97.7837219 269.833659,97.7837219 C275.549923,97.7837219 280.1838,102.406348 280.1838,108.108734 L280.1838,206.540189 L280.1838,206.540189 Z" id="Shape"></path>
                <path d="M190.553612,127.470001 C182.169793,119.106537 171.023021,114.50081 159.166919,114.50081 C147.310245,114.50081 136.163473,119.106537 127.780227,127.470001 C119.396408,135.833465 114.779473,146.953175 114.779473,158.780493 C114.779473,170.608381 119.396408,181.728091 127.780227,190.091555 C136.164045,198.455019 147.310817,203.060745 159.166919,203.060745 C171.023593,203.060745 182.170365,198.455019 190.553612,190.091555 C198.93743,181.728091 203.554365,170.608381 203.554365,158.780493 C203.554937,146.953175 198.93743,135.833465 190.553612,127.470001 L190.553612,127.470001 Z M159.167491,182.649692 C145.952794,182.649692 135.239629,171.962536 135.239629,158.779922 C135.239629,145.597308 145.952794,134.910152 159.167491,134.910152 C172.382188,134.910152 183.095354,145.596737 183.095354,158.779922 C183.095354,171.963107 172.382188,182.649692 159.167491,182.649692 L159.167491,182.649692 Z" id="Shape"></path>
            </g>
            <path d="M14.0490075,380.732805 L0,380.732805 L0,444.853259 L8.81506352,444.853259 L8.81506352,399.510938 L8.99871067,399.510938 L16.3445969,444.853259 L25.8942491,444.853259 L32.6891939,398.869734 L32.872841,398.869734 L32.872841,444.853259 L42.4224932,444.853259 L42.4224932,380.732805 L28.3734857,380.732805 L21.5785409,426.258327 L21.3948937,426.258327 L14.0490075,380.732805 Z M62.3941217,444.853259 L72.4947154,444.853259 L72.4947154,380.732805 L62.3941217,380.732805 L62.3941217,444.853259 Z M114.044885,444.853259 L124.420949,444.853259 L124.420949,380.732805 L115.422238,380.732805 L115.422238,419.113477 L115.238591,419.113477 L105.046174,380.732805 L92.3745203,380.732805 L92.3745203,444.853259 L101.465055,444.853259 L101.465055,398.41173 L101.648702,398.41173 L114.044885,444.853259 Z M144.300754,444.853259 L144.300754,380.732805 L160.278057,380.732805 C170.37865,380.732805 175.337124,386.320445 175.337124,396.579717 L175.337124,429.006347 C175.337124,439.26562 170.37865,444.853259 160.278057,444.853259 L144.300754,444.853259 Z M160.09441,389.89287 L154.401348,389.89287 L154.401348,435.693194 L160.09441,435.693194 C163.308235,435.693194 165.23653,434.044383 165.23653,429.46435 L165.23653,396.121714 C165.23653,391.541682 163.308235,389.89287 160.09441,389.89287 Z M230.523095,395.48051 L230.523095,430.105555 C230.523095,434.685587 232.543213,436.425999 235.757039,436.425999 C238.970864,436.425999 240.990983,434.685587 240.990983,430.105555 L240.990983,395.48051 C240.990983,390.900477 238.970864,389.160065 235.757039,389.160065 C232.543213,389.160065 230.523095,390.900477 230.523095,395.48051 Z M220.422501,429.46435 L220.422501,396.121714 C220.422501,385.862441 225.840092,380 235.757039,380 C245.673985,380 251.091576,385.862441 251.091576,396.121714 L251.091576,429.46435 C251.091576,439.723623 245.673985,445.586064 235.757039,445.586064 C225.840092,445.586064 220.422501,439.723623 220.422501,429.46435 Z M291.815334,444.853259 L302.191398,444.853259 L302.191398,380.732805 L293.192687,380.732805 L293.192687,419.113477 L293.00904,419.113477 L282.816623,380.732805 L270.144969,380.732805 L270.144969,444.853259 L279.235503,444.853259 L279.235503,398.41173 L279.41915,398.41173 L291.815334,444.853259 Z M362.886784,380.732805 L348.837776,380.732805 L348.837776,444.853259 L357.65284,444.853259 L357.65284,399.510938 L357.836487,399.510938 L365.182373,444.853259 L374.732025,444.853259 L381.52697,398.869734 L381.710617,398.869734 L381.710617,444.853259 L391.260269,444.853259 L391.260269,380.732805 L377.211262,380.732805 L370.416317,426.258327 L370.23267,426.258327 L362.886784,380.732805 Z M410.77278,380.732805 L410.77278,429.555951 C410.77278,439.815223 415.9149,445.677665 425.831847,445.677665 C435.748793,445.677665 440.890914,439.815223 440.890914,429.555951 L440.890914,380.732805 L431.341262,380.732805 L431.341262,430.197155 C431.341262,434.777188 429.321143,436.425999 426.107318,436.425999 C422.893492,436.425999 420.873374,434.777188 420.873374,430.197155 L420.873374,380.732805 L410.77278,380.732805 Z M459.117894,396.121714 C459.117894,403.449766 461.780778,408.762604 470.228547,416.182256 C476.839845,421.953097 478.859964,425.433922 478.859964,430.105555 C478.859964,434.685587 476.839845,436.334399 473.62602,436.334399 C470.412194,436.334399 468.392076,434.685587 468.392076,430.105555 L468.392076,425.525522 L458.842424,425.525522 L458.842424,429.46435 C458.842424,439.723623 463.984544,445.586064 473.90149,445.586064 C483.818437,445.586064 488.960557,439.723623 488.960557,429.46435 C488.960557,422.136298 486.297673,416.823461 477.849904,409.403808 C471.238607,403.632967 469.218488,400.152143 469.218488,395.48051 C469.218488,390.900477 471.054959,389.160065 474.268785,389.160065 C477.48261,389.160065 479.319082,390.900477 479.319082,395.48051 L479.319082,398.136928 L488.868734,398.136928 L488.868734,396.121714 C488.868734,385.862441 483.818437,380 473.993314,380 C464.168191,380 459.117894,385.862441 459.117894,396.121714 Z M527.113254,420.94549 L527.113254,430.105555 C527.113254,434.685587 525.093136,436.334399 521.87931,436.334399 C518.665485,436.334399 516.645366,434.685587 516.645366,430.105555 L516.645366,395.48051 C516.645366,390.900477 518.665485,389.160065 521.87931,389.160065 C525.093136,389.160065 527.113254,390.900477 527.113254,395.48051 L527.113254,402.350558 L536.662906,402.350558 L536.662906,396.121714 C536.662906,385.862441 531.520786,380 521.60384,380 C511.686893,380 506.544773,385.862441 506.544773,396.121714 L506.544773,429.46435 C506.544773,439.723623 511.686893,445.586064 521.60384,445.586064 C531.520786,445.586064 536.662906,439.723623 536.662906,429.46435 L536.662906,420.94549 L527.113254,420.94549 Z M555.440828,444.853259 L582.16149,444.853259 L582.16149,435.693194 L565.541422,435.693194 L565.541422,380.732805 L555.440828,380.732805 L555.440828,444.853259 Z M609.295357,389.89287 L626.741837,389.89287 L626.741837,380.732805 L599.194764,380.732805 L599.194764,444.853259 L626.741837,444.853259 L626.741837,435.693194 L609.295357,435.693194 L609.295357,416.915061 L623.160718,416.915061 L623.160718,407.754996 L609.295357,407.754996 L609.295357,389.89287 Z" id="mind-on-muscle" fill="#000000"></path>
        </g>
    </g>
</svg>